<svg width="24" height="15" viewBox="0 0 24 15" fill="none" xmlns="http://www.w3.org/2000/svg">
<g clip-path="url(#clip0_1_3269)">
<path d="M16.6959 13.9839C16.5865 13.8654 16.5319 13.7287 16.5319 13.5737C16.5319 13.4188 16.5865 13.2821 16.6959 13.1636L21.5084 7.76318H0.877563C0.722616 7.76318 0.588175 7.7085 0.474243 7.59912C0.360311 7.48975 0.303345 7.35303 0.303345 7.18896C0.303345 7.03402 0.360311 6.89958 0.474243 6.78564C0.588175 6.67171 0.722616 6.61475 0.877563 6.61475H21.5084L16.7096 1.21436C16.6002 1.09587 16.5433 0.959147 16.5387 0.804199C16.5341 0.649251 16.5865 0.51709 16.6959 0.407715C16.8144 0.289226 16.9557 0.22998 17.1198 0.22998C17.2838 0.22998 17.4205 0.284668 17.5299 0.394043C17.5299 0.394043 17.8261 0.722168 18.4186 1.37842C19.0201 2.04378 19.6809 2.77295 20.401 3.56592C21.1211 4.35889 21.7864 5.08805 22.3971 5.75342C22.9987 6.41878 23.3086 6.76058 23.3268 6.77881C23.3541 6.81527 23.3906 6.86768 23.4362 6.93604C23.4817 7.00439 23.5045 7.0887 23.5045 7.18896C23.5045 7.29834 23.4817 7.38721 23.4362 7.45557C23.3906 7.52393 23.3541 7.57178 23.3268 7.59912C23.3086 7.61735 22.9987 7.95915 22.3971 8.62451C21.7864 9.28988 21.1211 10.019 20.401 10.812C19.6809 11.605 19.0201 12.3341 18.4186 12.9995C17.8261 13.6558 17.5299 13.9839 17.5299 13.9839C17.4752 14.0386 17.4114 14.0796 17.3385 14.1069C17.2656 14.1343 17.1881 14.1479 17.1061 14.1479C17.0332 14.1479 16.9625 14.1343 16.8942 14.1069C16.8258 14.0796 16.7597 14.0386 16.6959 13.9839Z" fill="#333333" fill-opacity="0.8"/>
</g>
<defs>
<clipPath id="clip0_1_3269">
<rect width="23.7" height="14" fill="white" transform="matrix(1 0 0 -1 0.300049 14.23)"/>
</clipPath>
</defs>
</svg>
