<svg width="181" height="159" viewBox="0 0 181 159" fill="none" xmlns="http://www.w3.org/2000/svg">
<g clip-path="url(#clip0_1_3320)">
<g clip-path="url(#clip1_1_3320)">
<g clip-path="url(#clip2_1_3320)">
<path d="M139.541 75.6318L104.01 75.6318V0.409821H180.33L180.33 53.2096C180.33 72.9793 176.996 91.4231 170.327 108.541C163.658 125.659 151.926 142.415 135.131 158.81L106.974 137.111C120.31 123.61 129.202 110.952 133.649 99.1384C136.526 91.5606 138.504 83.671 139.541 75.6318Z" fill="#EFEFEF"/>
<path d="M35.8613 75.6318L0.330025 75.6318V0.409821H76.65V53.2096C76.65 72.9793 73.3157 91.4231 66.6471 108.541C59.9784 125.659 48.2463 142.415 31.4506 158.81L3.29355 137.111C16.6299 123.61 25.5216 110.952 29.9688 99.1384C32.8465 91.5606 34.8242 83.671 35.8613 75.6318Z" fill="#EFEFEF"/>
</g>
</g>
</g>
<defs>
<clipPath id="clip0_1_3320">
<rect width="180" height="158.4" fill="white" transform="translate(0.330017 0.409912)"/>
</clipPath>
<clipPath id="clip1_1_3320">
<rect width="180" height="158.4" fill="white" transform="translate(0.330017 0.409912)"/>
</clipPath>
<clipPath id="clip2_1_3320">
<rect width="180" height="158.4" fill="white" transform="translate(0.330017 0.409912)"/>
</clipPath>
</defs>
</svg>
