<svg width="40" height="42" viewBox="0 0 40 42" fill="none" xmlns="http://www.w3.org/2000/svg">
<rect width="40" height="40" rx="20" fill="#8A8A8A" fill-opacity="0.75"/>
<g clip-path="url(#clip0_1_1169)">
<g clip-path="url(#clip1_1_1169)">
<g clip-path="url(#clip2_1_1169)">
<path d="M20.236 10.68C13.554 10.68 10 14.962 10 19.631C10 21.796 11.21 24.497 13.147 25.353C13.441 25.486 13.601 25.429 13.667 25.153C13.725 24.946 13.979 23.948 14.103 23.477C14.1255 23.4038 14.1281 23.3259 14.1105 23.2514C14.0929 23.1769 14.0558 23.1084 14.003 23.053C13.258 22.0885 12.8511 20.9057 12.845 19.687C12.845 16.431 15.434 13.269 19.839 13.269C23.649 13.269 26.314 15.744 26.314 19.283C26.314 23.283 24.197 26.05 21.447 26.05C21.1042 26.0783 20.7596 26.0251 20.4413 25.8947C20.123 25.7643 19.8402 25.5603 19.6158 25.2996C19.3915 25.0389 19.232 24.7288 19.1506 24.3946C19.0691 24.0604 19.0679 23.7117 19.147 23.377C19.581 21.617 20.433 19.724 20.433 18.455C20.4596 18.1863 20.4284 17.915 20.3413 17.6594C20.2543 17.4038 20.1135 17.1699 19.9285 16.9733C19.7434 16.7766 19.5184 16.622 19.2685 16.5196C19.0187 16.4173 18.7498 16.3697 18.48 16.38C16.93 16.38 15.673 17.91 15.673 19.971C15.6636 20.7272 15.8218 21.4761 16.136 22.164C16.136 22.164 14.6 28.356 14.319 29.513C14.0588 31.3069 14.097 33.1315 14.432 34.913C14.4353 34.9458 14.4486 34.9769 14.4701 35.0019C14.4916 35.0269 14.5203 35.0448 14.5523 35.0529C14.5843 35.0611 14.618 35.0593 14.6489 35.0477C14.6798 35.036 14.7063 35.0152 14.725 34.988C15.7849 33.53 16.6343 31.9299 17.248 30.235C17.437 29.535 18.213 26.715 18.213 26.715C18.6226 27.2655 19.1605 27.7076 19.7799 28.0028C20.3993 28.298 21.0814 28.4375 21.767 28.409C26.436 28.409 29.81 24.309 29.81 19.209C29.791 14.333 25.613 10.68 20.236 10.68Z" fill="white"/>
</g>
</g>
</g>
<defs>
<clipPath id="clip0_1_1169">
<rect width="40" height="40" fill="white" transform="translate(0 1.67999)"/>
</clipPath>
<clipPath id="clip1_1_1169">
<rect width="40" height="40" fill="white" transform="translate(0 1.67999)"/>
</clipPath>
<clipPath id="clip2_1_1169">
<rect width="40" height="40" fill="white" transform="translate(0 1.67999)"/>
</clipPath>
</defs>
</svg>
