<svg width="40" height="42" viewBox="0 0 40 42" fill="none" xmlns="http://www.w3.org/2000/svg">
<rect width="40" height="40" rx="20" fill="#8A8A8A" fill-opacity="0.75"/>
<g clip-path="url(#clip0_1_1135)">
<g clip-path="url(#clip1_1_1135)">
<g clip-path="url(#clip2_1_1135)">
<path d="M29.7489 13.962C29.3491 13.5615 28.8741 13.2439 28.3512 13.0273C27.8284 12.8107 27.2679 12.6995 26.7019 12.7C26.1364 12.6988 25.5763 12.8096 25.0538 13.026C24.5313 13.2425 24.0569 13.5602 23.6579 13.961L18.0969 19.522C17.5566 20.0633 17.17 20.7386 16.9767 21.4786C16.7834 22.2185 16.7904 22.9966 16.9969 23.733C17.0561 23.9427 17.1961 24.1202 17.3861 24.2267C17.5762 24.3331 17.8008 24.3597 18.0104 24.3005C18.2201 24.2414 18.3977 24.1014 18.5041 23.9113C18.6105 23.7212 18.6371 23.4967 18.5779 23.287C18.45 22.8312 18.4455 22.3496 18.565 21.8915C18.6845 21.4334 18.9236 21.0153 19.2579 20.68L24.8189 15.12C25.3211 14.6346 25.9938 14.3659 26.6922 14.3718C27.3905 14.3777 28.0586 14.6577 28.5525 15.1515C29.0464 15.6452 29.3266 16.3132 29.3326 17.0116C29.3387 17.71 29.0702 18.3828 28.5849 18.885L23.0239 24.446C22.6595 24.811 22.1967 25.0619 21.6919 25.168C21.4782 25.2139 21.2914 25.3428 21.1727 25.5264C21.054 25.71 21.013 25.9333 21.0589 26.147C21.1048 26.3608 21.2337 26.5476 21.4173 26.6663C21.6009 26.785 21.8242 26.8259 22.0379 26.78C22.8535 26.6079 23.6012 26.2021 24.1899 25.612L29.7509 20.052C30.1514 19.6524 30.4691 19.1777 30.6858 18.6552C30.9025 18.1326 31.014 17.5723 31.0138 17.0066C31.0136 16.4409 30.9018 15.8807 30.6848 15.3583C30.4677 14.8358 30.1497 14.3613 29.7489 13.962Z" fill="white" stroke="white" stroke-width="0.25"/>
<path d="M22.0261 20.58C21.9968 20.4762 21.9473 20.3792 21.8805 20.2945C21.8138 20.2098 21.7309 20.1391 21.6368 20.0864C21.5427 20.0337 21.4392 20 21.332 19.9874C21.2249 19.9747 21.1164 19.9832 21.0126 20.0125C20.9087 20.0418 20.8117 20.0913 20.727 20.158C20.6423 20.2248 20.5716 20.3076 20.5189 20.4017C20.4662 20.4959 20.4326 20.5994 20.4199 20.7065C20.4072 20.8137 20.4158 20.9222 20.4451 21.026C20.5716 21.4809 20.5752 21.9612 20.4556 22.418C20.3359 22.8747 20.0973 23.2916 19.7641 23.626L14.2031 29.189C13.6999 29.669 13.0289 29.9331 12.3336 29.9249C11.6382 29.9166 10.9737 29.6368 10.482 29.1451C9.9903 28.6534 9.71043 27.9888 9.70222 27.2935C9.694 26.5982 9.9581 25.9272 10.4381 25.424L15.9981 19.862C16.3618 19.4972 16.824 19.2463 17.3281 19.14C17.5394 19.0951 17.7245 18.9688 17.8433 18.7883C17.9621 18.6078 18.0049 18.3878 17.9626 18.1759C17.9202 17.9641 17.796 17.7774 17.617 17.6565C17.4379 17.5356 17.2184 17.4902 17.0061 17.53H16.9901C16.1743 17.7034 15.4267 18.1103 14.8381 18.701L9.27605 24.262C8.49382 25.0745 8.06157 26.1614 8.07221 27.2892C8.08286 28.417 8.53554 29.4956 9.33297 30.2931C10.1304 31.0907 11.2089 31.5435 12.3367 31.5544C13.4645 31.5652 14.5515 31.1331 15.3641 30.351L20.9251 24.789C21.4652 24.248 21.8518 23.5732 22.0453 22.8336C22.2388 22.094 22.2321 21.3162 22.0261 20.58Z" fill="white" stroke="white" stroke-width="0.25"/>
</g>
</g>
</g>
<defs>
<clipPath id="clip0_1_1135">
<rect width="40" height="40" fill="white" transform="translate(0 1.67999)"/>
</clipPath>
<clipPath id="clip1_1_1135">
<rect width="40" height="40" fill="white" transform="translate(0 1.67999)"/>
</clipPath>
<clipPath id="clip2_1_1135">
<rect width="40" height="40" fill="white" transform="translate(0 1.67999)"/>
</clipPath>
</defs>
</svg>
