<svg width="40" height="42" viewBox="0 0 40 42" fill="none" xmlns="http://www.w3.org/2000/svg">
<rect width="40" height="40" rx="20" fill="#8A8A8A" fill-opacity="0.75"/>
<g clip-path="url(#clip0_1_1159)">
<g clip-path="url(#clip1_1_1159)">
<g clip-path="url(#clip2_1_1159)">
<path d="M31 16.574C30.2469 16.8975 29.4516 17.1123 28.638 17.212C29.4927 16.7147 30.1345 15.9202 30.441 14.98C29.6356 15.4499 28.7565 15.7802 27.841 15.957C27.454 15.5527 26.9891 15.2311 26.4743 15.0117C25.9596 14.7922 25.4056 14.6793 24.846 14.68C24.2343 14.678 23.6301 14.8135 23.0778 15.0765C22.5256 15.3394 22.0395 15.7231 21.6554 16.1992C21.2714 16.6753 20.9993 17.2316 20.8592 17.827C20.7191 18.4224 20.7146 19.0416 20.846 19.639C19.2204 19.5636 17.6286 19.1489 16.1728 18.4217C14.717 17.6944 13.4295 16.6706 12.393 15.416C11.8645 16.3045 11.7006 17.3631 11.9355 18.3698C12.1704 19.3765 12.7859 20.2532 13.653 20.816C13.0043 20.7977 12.3692 20.6256 11.8 20.314V20.358C11.8063 21.2967 12.1367 22.2044 12.7353 22.9275C13.3339 23.6506 14.164 24.1446 15.085 24.326C14.734 24.4171 14.3726 24.4618 14.01 24.459C13.7496 24.4635 13.4895 24.4404 13.234 24.39C13.5055 25.196 14.0192 25.8986 14.7048 26.4019C15.3904 26.9051 16.2147 27.1846 17.065 27.202C15.6071 28.3219 13.8194 28.9274 11.981 28.924C11.6531 28.926 11.3255 28.9073 11 28.868C12.881 30.0595 15.0634 30.6882 17.29 30.68C18.8134 30.7025 20.3262 30.4221 21.7403 29.855C23.1544 29.2879 24.4418 28.4455 25.5276 27.3767C26.6134 26.3078 27.4759 25.0338 28.0652 23.6288C28.6544 22.2238 28.9586 20.7156 28.96 19.192C28.96 19.014 28.954 18.841 28.945 18.67C29.7518 18.1021 30.4482 17.3918 31 16.574Z" fill="white"/>
</g>
</g>
</g>
<defs>
<clipPath id="clip0_1_1159">
<rect width="40" height="40" fill="white" transform="translate(0 1.67999)"/>
</clipPath>
<clipPath id="clip1_1_1159">
<rect width="40" height="40" fill="white" transform="translate(0 1.67999)"/>
</clipPath>
<clipPath id="clip2_1_1159">
<rect width="40" height="40" fill="white" transform="translate(0 1.67999)"/>
</clipPath>
</defs>
</svg>
