<svg width="160" height="32" viewBox="0 0 160 32" fill="none" xmlns="http://www.w3.org/2000/svg">
<path d="M159.011 7.35596L147.785 27.187H145.136L150.273 18.2895L143.935 7.35596H146.614L151.62 15.9031L156.377 7.35596H159.011Z" fill="#323232"/>
<path d="M130.456 14.8115C130.456 10.6844 133.369 7.56709 137.672 7.56709C139.735 7.56709 141.595 8.32792 142.839 9.76231L141.302 11.3877C140.277 10.3925 139.091 9.82169 137.613 9.82169C134.935 9.82169 132.9 11.8998 132.9 14.8123C132.9 17.7248 134.934 19.8175 137.613 19.8175C139.023 19.7951 140.367 19.2226 141.36 18.2223L142.838 19.8763C141.58 21.2961 139.735 22.0571 137.671 22.0571C133.368 22.0565 130.456 18.939 130.456 14.8115Z" fill="#323232"/>
<path d="M125.924 21.7656V13.9048C125.924 11.3434 124.519 9.8358 122.104 9.8358C119.865 9.8358 117.992 11.3726 117.992 13.9632V21.7656H115.606V7.86003H117.977V9.67601C119.118 8.10986 120.919 7.56836 122.529 7.56836C125.953 7.56836 128.325 9.7931 128.325 13.1302V21.7656H125.924Z" fill="#323232"/>
<path d="M99.8777 14.8115C99.8777 10.5379 102.79 7.56709 106.786 7.56709C110.577 7.56709 113.299 10.5088 113.329 14.7675C113.329 15.0748 113.299 15.3969 113.285 15.6604H102.351C102.688 18.5436 104.693 19.9634 107.079 19.9634C108.662 19.9499 110.186 19.3621 111.367 18.3094L112.641 19.9486C110.914 21.5586 108.982 22.0561 106.933 22.0561C102.805 22.0565 99.8777 19.144 99.8777 14.8115ZM102.38 13.7284H110.884C110.591 11.2698 108.996 9.68918 106.742 9.68918C104.283 9.68939 102.746 11.3577 102.38 13.7288V13.7284Z" fill="#323232"/>
<path d="M84.3835 26.0519L85.4228 24.1201C86.8172 25.124 88.4907 25.6664 90.209 25.6715C93.1948 25.6715 95.1999 23.9884 95.1999 20.9003V19.6707C94.1461 21.0021 92.5654 21.8367 90.414 21.8367C86.5058 21.8367 83.5347 18.9388 83.5347 14.6946C83.5347 10.465 86.5058 7.56709 90.414 7.56709C92.5654 7.56709 94.1461 8.41605 95.1999 9.74793V7.86001H97.6003V20.7978C97.6003 25.2909 94.5991 27.8519 90.209 27.8519C88.0428 27.8513 85.8034 27.1934 84.3835 26.0519ZM85.9789 14.6948C85.9789 17.4025 87.8377 19.5832 90.6921 19.5832C93.4586 19.5832 95.4054 17.4757 95.4054 14.6948C95.4054 11.9288 93.4586 9.82127 90.6921 9.82127C87.8377 9.82127 85.9791 12.0163 85.9791 14.6946L85.9789 14.6948Z" fill="#323232"/>
<path d="M67.0015 14.8119C67.0015 10.6106 70.0451 7.56731 73.9539 7.56731C76.1349 7.56731 77.7583 8.41605 78.8574 9.73314V7.8598H81.2578V21.7636H78.8574V19.9048C77.7596 21.2073 76.1351 22.0563 73.9539 22.0563C70.0451 22.0565 67.0015 19.0121 67.0015 14.8119ZM69.4459 14.8119C69.4459 17.5782 71.3779 19.8173 74.232 19.8173C77.0431 19.8173 79.0036 17.6659 79.0036 14.8119C79.0036 11.9727 77.0423 9.82127 74.232 9.82127C71.3343 9.82106 69.4459 12.0459 69.4459 14.8119Z" fill="#323232"/>
<path d="M65.1006 5.40881C65.099 5.01167 64.9798 4.62389 64.7581 4.29444C64.5363 3.96498 64.2219 3.70863 63.8545 3.55774C63.4872 3.40685 63.0833 3.36819 62.694 3.44665C62.3047 3.5251 61.9474 3.71715 61.6671 3.99855C61.3869 4.27995 61.1963 4.63807 61.1194 5.0277C61.0426 5.41734 61.0829 5.82101 61.2353 6.18775C61.3877 6.55449 61.6453 6.86785 61.9756 7.08828C62.306 7.3087 62.6943 7.42629 63.0914 7.42621C63.3558 7.42568 63.6175 7.37308 63.8616 7.27141C64.1057 7.16974 64.3273 7.021 64.5139 6.83366C64.7005 6.64633 64.8484 6.42408 64.9491 6.1796C65.0498 5.93513 65.1011 5.67321 65.1006 5.40881Z" fill="#E54352"/>
<path d="M56.2646 9.03338C56.2646 11.2195 56.2733 13.4367 56.2659 15.6232C56.2669 16.0112 56.2367 16.3985 56.1756 16.7816C55.9818 17.9412 55.4107 18.8259 54.2592 19.226C53.4503 19.5017 52.5773 19.5293 51.7525 19.3053C51.3133 19.2073 50.9052 19.002 50.5647 18.7079C50.2241 18.4138 49.9617 18.0399 49.8009 17.6196C49.582 17.0668 49.4737 16.4764 49.4821 15.8819C49.4793 13.3516 49.4786 10.8211 49.48 8.29052V8.01577L46.4259 9.03402C46.4238 11.3715 46.4221 13.744 46.439 16.0814C46.4429 16.6439 46.5047 17.2046 46.6233 17.7544C47.0285 19.6176 48.1028 20.9738 49.859 21.7114C50.804 22.1213 51.8227 22.3339 52.8528 22.3364C53.8828 22.3388 54.9026 22.131 55.8495 21.7255C57.1284 21.2164 58.1589 20.2293 58.7225 18.9734C59.144 18.0008 59.3465 16.9474 59.3157 15.8878C59.3231 13.3494 59.3181 10.8116 59.3181 8.27297V8.01514L56.2646 9.03338Z" fill="#323232"/>
<path d="M33.4592 15.1308C33.4803 13.6812 33.851 12.5366 34.7776 11.6196C35.3933 11.0137 36.197 10.6355 37.0563 10.5472C37.0945 10.5424 37.1317 10.5358 37.1704 10.5318C37.2892 10.5208 37.4075 10.5128 37.5244 10.5092C38.3434 10.4695 39.1553 10.6768 39.8551 11.1041C40.4487 11.4652 40.9365 11.9766 41.269 12.5867C41.4673 12.9556 41.6138 13.3501 41.7044 13.759C41.9819 14.861 41.8776 16.0245 41.4085 17.0595C41.1438 17.6893 40.7163 18.2373 40.1699 18.6475C39.6236 19.0576 38.9779 19.3151 38.2993 19.3936C38.0997 19.4221 37.8986 19.4383 37.6971 19.442L37.6572 19.4433C37.4566 19.4457 37.2561 19.435 37.0569 19.4111C36.4978 19.345 35.9592 19.1603 35.4772 18.8692C34.4037 18.223 33.8134 17.2358 33.5695 16.0275C33.4987 15.679 33.4803 15.3198 33.4592 15.1308ZM44.6672 8.01746L41.8399 8.98202L41.6508 9.66403C41.4026 9.32932 41.1121 9.02819 40.7865 8.76815C40.1818 8.30428 39.4843 7.97597 38.7414 7.80548C38.6736 7.78879 38.6045 7.77589 38.5358 7.76194C38.5303 7.76194 38.5256 7.76004 38.5203 7.75877C37.7671 7.61624 36.9949 7.60459 36.2377 7.72433C34.7512 7.92548 33.379 8.63106 32.3506 9.72299C30.9506 11.1916 30.3514 12.995 30.3444 14.9996C30.3311 16.182 30.5903 17.3517 31.1019 18.4178C31.7032 19.6929 32.6863 20.7493 33.9149 21.4408C35.1434 22.1322 36.5567 22.4243 37.9588 22.2767C38.4248 22.2356 38.8836 22.1354 39.3243 21.9785C40.1885 21.7322 40.9879 21.2987 41.6658 20.7088V21.9436H44.667L44.6672 8.01746Z" fill="#323232"/>
<path d="M18.9233 13.7647C19.1568 11.926 20.3009 10.3496 22.5686 10.3437C24.642 10.3386 25.8216 11.7952 26.0872 13.7647H18.9233ZM29.1445 13.9881C29.0605 12.6465 28.6076 11.3541 27.8358 10.2535C27.0514 9.10975 25.8885 8.27958 24.5519 7.90926C23.0607 7.48281 21.4713 7.55209 20.0228 8.10666C18.6388 8.60992 17.4808 9.59205 16.7584 10.8752C16.1225 11.9958 15.7733 13.2561 15.7417 14.5441C15.6614 15.838 15.8852 17.1328 16.3953 18.3246C16.7746 19.2281 17.3574 20.0319 18.0982 20.6734C18.839 21.3149 19.7179 21.7768 20.6664 22.0231C22.2074 22.4376 23.835 22.4016 25.3562 21.9194C26.5702 21.555 27.682 20.9114 28.6024 20.0399L26.9872 17.9647C25.4756 19.2176 23.9126 19.7233 22.491 19.6208C21.9737 19.595 21.4676 19.4612 21.0053 19.2278C20.5429 18.9944 20.1347 18.6667 19.8068 18.2659C19.3065 17.6385 18.9892 16.8852 18.8897 16.0891H29.1536C29.1534 15.3705 29.1961 14.6758 29.1445 13.9881Z" fill="#323232"/>
<path d="M10.1507 18.3076C9.47923 18.98 8.58261 19.3801 7.63366 19.4307C7.55124 19.437 7.46944 19.4394 7.38786 19.4421C7.19493 19.448 7.00183 19.4423 6.80958 19.425L6.78591 19.4237C6.59937 19.4063 6.41418 19.3767 6.23152 19.335C6.21335 19.331 6.19559 19.3259 6.17741 19.3214C6.00116 19.2788 5.82807 19.224 5.65938 19.1574C5.64353 19.1511 5.62789 19.1431 5.61161 19.1363C5.43476 19.0642 5.26363 18.9788 5.09971 18.8808C3.97951 18.2077 3.36214 17.1848 3.14275 15.9203C2.91295 14.7829 3.09199 13.6009 3.64832 12.5826C3.94034 12.0299 4.36281 11.5568 4.87907 11.2043C5.39533 10.8518 5.9898 10.6306 6.61091 10.5598C6.86834 10.5238 7.12816 10.5076 7.38807 10.5114C8.10927 10.5159 8.81583 10.7154 9.43295 11.0886C10.4969 11.7324 11.0849 12.7126 11.3307 13.9117C11.4022 14.26 11.4195 14.6189 11.4413 14.7994C11.4244 16.2477 11.0631 17.3883 10.1507 18.3076ZM13.8402 11.6227C13.1997 10.2044 12.0879 9.05159 10.6937 8.36017C9.54183 7.785 8.25079 7.54725 6.96958 7.67437C6.61511 7.70619 6.26436 7.77092 5.92188 7.86775C4.93956 8.08983 4.02632 8.54841 3.26153 9.20364V2.15221L0.212708 3.17024L0.217991 21.9537H3.26809V20.7341C3.54702 20.9721 3.84434 21.1878 4.15726 21.3791C4.83078 21.7824 5.57331 22.0572 6.34713 22.1896C7.11008 22.3382 7.89315 22.352 8.66086 22.2304C10.1471 22.03 11.5194 21.3252 12.5481 20.234C13.9562 18.7591 14.552 16.9481 14.5575 14.9361C14.5698 13.7919 14.3245 12.6595 13.84 11.6229" fill="#323232"/>
</svg>
